<?xml version="1.0" standalone="no"?>
<!DOCTYPE svg PUBLIC "-//W3C//DTD SVG 20010904//EN"
 "http://www.w3.org/TR/2001/REC-SVG-20010904/DTD/svg10.dtd">
<svg version="1.0" xmlns="http://www.w3.org/2000/svg"
 width="477.000000pt" height="477.000000pt" viewBox="0 0 477.000000 477.000000"
 preserveAspectRatio="xMidYMid meet">
<metadata>
Created by potrace 1.11, written by Peter Selinger 2001-2013
</metadata>
<g transform="translate(0.000000,477.000000) scale(0.100000,-0.100000)"
fill="#000000" stroke="none">
<path d="M0 2385 l0 -2385 2385 0 2385 0 0 2385 0 2385 -2385 0 -2385 0 0
-2385z m4047 1949 c13 -8 31 -26 40 -41 17 -25 18 -91 18 -1073 l0 -1045 -29
-89 c-109 -333 -452 -523 -790 -436 -144 37 -262 110 -1216 756 -377 255 -525
350 -608 391 -64 32 -82 37 -150 37 -65 1 -86 -4 -134 -27 -65 -32 -121 -89
-152 -156 -21 -45 -21 -55 -24 -756 -2 -616 -1 -708 12 -695 8 8 206 238 442
510 235 272 433 494 440 494 15 -2 274 -184 274 -194 0 -16 -1306 -1517 -1333
-1532 -39 -22 -69 -23 -113 -2 -74 35 -69 -41 -69 1119 0 976 1 1044 18 1104
39 135 127 269 230 347 131 99 301 152 446 140 194 -16 274 -57 794 -408 1159
-782 1165 -785 1274 -795 157 -14 283 70 327 217 14 47 16 139 16 737 0 451
-3 682 -10 678 -5 -3 -206 -233 -446 -511 l-436 -504 -45 33 c-190 136 -227
163 -229 172 -2 6 293 352 654 770 690 798 685 792 752 778 14 -3 35 -12 47
-19z"/>
</g>
</svg>
